<svg width="22" height="23" viewBox="0 0 22 23" fill="none" xmlns="http://www.w3.org/2000/svg">
<path fill-rule="evenodd" clip-rule="evenodd" d="M11 1.49999C16.5229 1.49999 21 5.97716 21 11.5C21 17.0229 16.5229 21.5 11 21.5C5.47712 21.5 0.999966 17.0229 0.999966 11.5C0.999966 5.97716 5.47712 1.49999 11 1.49999Z" fill="#E8E8EB"/>
<path opacity="0.5" fill-rule="evenodd" clip-rule="evenodd" d="M9.49374 17.4833H11.6746V11.431H13.1962L13.3584 9.405H11.6746C11.6746 9.405 11.6746 8.64854 11.6746 8.25095C11.6746 7.7733 11.7614 7.5842 12.1781 7.5842C12.5135 7.5842 13.3584 7.5842 13.3584 7.5842V5.48153C13.3584 5.48153 12.114 5.48153 11.8483 5.48153C10.2254 5.48153 9.49374 6.27332 9.49374 7.78946C9.49374 9.11002 9.49374 9.405 9.49374 9.405H8.35953V11.4567H9.49374V17.4833Z" fill="black"/>
</svg>
