<svg width="22" height="23" viewBox="0 0 22 23" fill="none" xmlns="http://www.w3.org/2000/svg">
<path fill-rule="evenodd" clip-rule="evenodd" d="M11 1.49999C16.5229 1.49999 21 5.97716 21 11.5C21 17.0229 16.5229 21.5 11 21.5C5.47712 21.5 0.999966 17.0229 0.999966 11.5C0.999966 5.97716 5.47712 1.49999 11 1.49999Z" fill="#E8E8EB"/>
<path opacity="0.5" fill-rule="evenodd" clip-rule="evenodd" d="M6.79955 8.61219C7.54098 8.61219 8.14204 8.00638 8.14204 7.25955C8.14204 6.51254 7.54098 5.9071 6.79955 5.9071C6.05822 5.9071 5.45715 6.51254 5.45715 7.25955C5.45715 8.00638 6.05822 8.61219 6.79955 8.61219ZM5.67544 16.9023H7.94544V9.57212H5.67544V16.9023ZM12.9572 11.4102C12.0488 11.4102 11.574 12.0237 11.574 13.0546V16.9023H9.39674V9.57212H11.574V10.5594C11.574 10.5594 12.2288 9.34829 13.7839 9.34829C15.3391 9.34829 16.4522 10.2976 16.4522 12.261V16.9023H14.1932V13.0546C14.1932 11.9991 13.7921 11.4102 12.9572 11.4102Z" fill="black"/>
</svg>
