<svg width="22" height="23" viewBox="0 0 22 23" fill="none" xmlns="http://www.w3.org/2000/svg">
<path fill-rule="evenodd" clip-rule="evenodd" d="M11 1.49999C16.5229 1.49999 21 5.97716 21 11.5C21 17.0229 16.5229 21.5 11 21.5C5.47716 21.5 1.00001 17.0229 1.00001 11.5C1.00001 5.97716 5.47716 1.49999 11 1.49999Z" fill="#E8E8EB"/>
<path opacity="0.5" fill-rule="evenodd" clip-rule="evenodd" d="M13.2318 9.33501C12.6979 8.77276 11.9563 8.42349 11.1357 8.42349C10.3151 8.42349 9.57354 8.77276 9.04006 9.33501H5.39453V7.78481C5.39453 6.98931 5.77421 6.28631 6.35517 5.85887V8.40031H6.82139V5.59455C6.92702 5.55064 7.03685 5.5145 7.14974 5.48731V8.40031H7.61588V5.4259C7.62376 5.42581 7.63154 5.42559 7.63931 5.42537C7.64905 5.42508 7.65877 5.4248 7.66861 5.4248H7.93789V8.40031H8.40411V5.4248H14.6181C15.8738 5.4248 16.8922 6.48148 16.8922 7.78481H16.8919V9.33501H13.2318ZM14.2587 6.41152C14.057 6.41152 13.8937 6.58108 13.8937 6.79009V8.09432C13.8937 8.30333 14.057 8.47289 14.2587 8.47289H15.4878C15.6894 8.47289 15.8527 8.30333 15.8527 8.09432V6.79009C15.8527 6.58108 15.6894 6.41152 15.4878 6.41152H14.2587ZM12.0706 9.33501C12.2744 9.43133 12.4619 9.55783 12.6283 9.70885C13.1022 10.1406 13.4023 10.7731 13.4023 11.4772C13.4023 12.7745 12.3856 13.8296 11.1357 13.8296C9.88612 13.8296 8.86941 12.7745 8.86941 11.4772C8.86941 10.7731 9.16948 10.1406 9.64346 9.70885C9.80951 9.55783 9.99727 9.43133 10.2009 9.33501C10.4862 9.20054 10.8027 9.12478 11.1357 9.12478C11.469 9.12478 11.7855 9.20054 12.0706 9.33501ZM9.46813 11.4772C9.46813 12.4374 10.218 13.2157 11.1432 13.2157C12.0683 13.2157 12.8183 12.4374 12.8183 11.4772C12.8183 10.5171 12.0683 9.73889 11.1432 9.73889C10.218 9.73889 9.46813 10.5171 9.46813 11.4772ZM14.6181 17.4205H7.66861C6.41291 17.4205 5.39453 16.3641 5.39453 15.0605V9.70885H8.73824C8.39576 10.2079 8.19391 10.8178 8.19391 11.4772C8.19391 13.1635 9.51111 14.5309 11.1357 14.5309C12.7605 14.5309 14.0779 13.1635 14.0779 11.4772C14.0779 10.8178 13.8757 10.2079 13.5335 9.70885H16.8922V15.0605C16.8922 16.3641 15.8741 17.4205 14.6181 17.4205Z" fill="black"/>
</svg>
