<svg width="22" height="23" viewBox="0 0 22 23" fill="none" xmlns="http://www.w3.org/2000/svg">
<path fill-rule="evenodd" clip-rule="evenodd" d="M11 1.49999C16.5228 1.49999 21 5.97716 21 11.5C21 17.0229 16.5228 21.5 11 21.5C5.47719 21.5 1.00003 17.0229 1.00003 11.5C1.00003 5.97716 5.47719 1.49999 11 1.49999Z" fill="#E8E8EB"/>
<path opacity="0.5" fill-rule="evenodd" clip-rule="evenodd" d="M4.96691 14.9759C6.05697 15.6206 7.35155 15.9969 8.74228 15.9969C13.3153 15.9969 15.8986 12.4335 15.7431 9.23743C16.2241 8.91719 16.6418 8.51698 16.9719 8.06117C16.5301 8.24194 16.0554 8.3642 15.5573 8.41895C16.0657 8.13808 16.4563 7.69267 16.6402 7.16186C16.1643 7.42231 15.6371 7.61152 15.0762 7.71327C14.6271 7.27162 13.9871 6.99573 13.2784 6.99573C11.6889 6.99573 10.5202 8.36448 10.8791 9.78608C8.83215 9.69115 7.01736 8.78649 5.80287 7.41177C5.15767 8.43306 5.46817 9.76934 6.56507 10.4454C6.16119 10.4337 5.78126 10.3312 5.44914 10.1613C5.42268 11.214 6.24014 12.1984 7.42473 12.4182C7.07811 12.505 6.6985 12.525 6.31273 12.457C6.62591 13.3597 7.53564 14.0165 8.61327 14.0348C7.57795 14.7838 6.27368 15.1182 4.96691 14.9759Z" fill="black"/>
</svg>
